# AST/ASF file generated using VICON BodyLanguage
# -----------------------------------------------
:version 1.10
:name VICON
:units
  mass 1.0
  length 0.45
  angle deg
:documentation
   .ast/.asf automatically generated from VICON data using
   VICON BodyBuilder and BodyLanguage model FoxedUp or BRILLIANT.MOD
:root
   order TX TY TZ RX RY RZ
   axis XYZ
   position 0 0 0  
   orientation 0 0 0 
:bonedata
  begin
     id 1 
     name lhipjoint
     direction 0.682418 -0.694059 0.22932 
     length 2.25561 
     axis 0 0 0  XYZ
  end
  begin
     id 2 
     name lfemur
     direction 0.34202 -0.939693 0  
     length 6.96448  
     axis 0 0 20  XYZ
    dof rx ry rz
    limits (-160.0 20.0)
           (-70.0 70.0)
           (-60.0 70.0)
  end
  begin
     id 3 
     name ltibia
     direction 0.34202 -0.939693 0   
     length 6.88553   
     axis 0 0 20   XYZ
    dof rx
    limits (-10.0 170.0)
  end
  begin
     id 4 
     name lfoot
     direction 0.0723587 -0.198804 0.977364   
     length 1.88518   
     axis -90 7.62852e-016 20   XYZ
    dof rx rz
    limits (-45.0 90.0)
           (-70.0 20.0)
  end
  begin
     id 5 
     name ltoes
     direction 1.53558e-011 -4.21962e-011 1   
     length 0.952124   
     axis -90 7.62852e-016 20   XYZ
    dof rx
    limits (-90.0 20.0)
  end
  begin
     id 6 
     name rhipjoint
     direction -0.657603 -0.71533 0.236348   
     length 2.18854  
     axis 0 0 0  XYZ 
  end
  begin
     id 7 
     name rfemur
     direction -0.34202 -0.939693 0   
     length 6.86686   
     axis 0 0 -20   XYZ
    dof rx ry rz
    limits (-160.0 20.0)
           (-70.0 70.0)
           (-70.0 60.0)
  end
  begin
     id 8 
     name rtibia
     direction -0.34202 -0.939693 0   
     length 6.59503   
     axis 0 0 -20   XYZ
    dof rx
    limits (-10.0 170.0)
 end
 begin
     id 9 
     name rfoot
     direction -0.101977 -0.280179 0.954516   
     length 1.93723  
     axis -90 -7.62852e-016 -20   XYZ
    dof rx rz
    limits (-45.0 90.0)
           (-20.0 70.0)
  end
  begin
     id 10 
     name rtoes
     direction -1.53564e-011 -4.21897e-011 1   
     length 0.970315   
     axis -90 -7.62852e-016 -20   XYZ
    dof rx
    limits (-90.0 20.0)
  end
  begin
     id 11 
     name lowerback
     direction -0.0339559 0.999421 -0.00235966   
     length 1.88543   
     axis 0 0 0   XYZ
    dof rx ry rz
    limits (-20.0 45.0)
           (-30.0 30.0)
           (-30.0 30.0)
  end
  begin
     id 12 
     name upperback
     direction 0.00401003 0.999739 0.0224689   
     length 1.8856   
     axis 0 0 0   XYZ
    dof rx ry rz
    limits (-20.0 45.0)
           (-30.0 30.0)
           (-30.0 30.0)
  end
  begin
     id 13 
     name thorax
     direction 0.0198619 0.999546 0.0226536   
     length 1.88352   
     axis 0 0 0   XYZ
    dof rx ry rz
    limits (-20.0 45.0)
           (-30.0 30.0)
           (-30.0 30.0)
  end
  begin
     id 14 
     name lowerneck
     direction -0.0461848 0.998632 0.0245198   
     length 1.34895   
     axis 0 0 0   XYZ
    dof rx ry rz
    limits (-20.0 45.0)
           (-30.0 30.0)
           (-30.0 30.0)
  end
  begin
     id 15 
     name upperneck
     direction -0.0180627 0.994724 -0.100984   
     length 1.35214   
     axis 0 0 0   XYZ
    dof rx ry rz
    limits (-20.0 45.0)
           (-30.0 30.0)
           (-30.0 30.0)
  end
  begin
     id 16
     name head
     direction -0.00374772 0.999293 -0.037403  
     length 1.3568  
     axis 0 0 0   XYZ
    dof rx ry rz
    limits (-20.0 45.0)
           (-30.0 30.0)
           (-30.0 30.0)
  end
  begin
     id 17 
     name lclavicle
     direction 0.971773 0.191119 0.138311  
     length 2.84954  
     axis 0 0 0   XYZ
    dof ry rz
    limits (-20.0 10.0)
           (0.0 20.0)
  end
  begin
     id 18 
     name lhumerus
     direction 1 -4.4897e-011 -2.43761e-027   
     length 4.40919   
     axis 180 -30 -90   XYZ
    dof rx ry rz
    limits (-60.0 90.0)
           (-90.0 90.0)
           (-90.0 90.0)
  end
  begin
     id 19
     name lradius
     direction 1 -4.4896e-011 -9.1621e-027   
     length 3.03857   
     axis 180 -30 -90   XYZ
    dof rx
    limits (-10.0 170.0)
  end
  begin
     id 20
     name lwrist
     direction 1 -4.4896e-011 -1.41363e-026   
     length 1.51928   
     axis 1.07133e-014 90 90   XYZ
    dof ry
    limits (-180.0 0.0)
 end
  begin
     id 21 
     name lhand
     direction 1 -4.48978e-011 -2.82725e-026   
     length 0.523208   
     axis 1.80403e-014 90 90   XYZ
    dof rx rz
    limits (-90.0 90.0)
           (-45.0 45.0)
  end
  begin
     id 22 
     name lfingers
     direction 1 -4.48977e-011 -5.6545e-026   
     length 0.421824   
     axis 3.60806e-014 90 90   XYZ
    dof rx
    limits (0.0 90.0)
  end
  begin
     id 23
     name lthumb
     direction 0.707107 -6.34962e-011 0.707107   
     length 0.605657   
     axis -90 45 2.85299e-015   XYZ
    dof rx rz
    limits (-45.0 45.0)
           (-45.0 45.0)
  end
  begin
     id 24 
     name rclavicle
     direction -0.957247 0.24311 0.156766   
     length 3.12406  
     axis 0 0 0   XYZ 
    dof ry rz
    limits (-10.0 20.0)
           (-20.0 0.0)
  end
  begin
     id 25 
     name rhumerus
     direction -1 -4.48964e-011 -1.70632e-027  
     length 4.61969   
     axis 180 30 90   XYZ
    dof rx ry rz
    limits (-90.0 60.0)
           (-90.0 90.0)
           (-90.0 90.0)
  end
  begin
     id 26 
     name rradius
     direction -1 -4.48966e-011 -6.60395e-027   
     length 3.09382   
     axis 180 30 90   XYZ
    dof rx
    limits (-10.0 170.0)
  end
  begin
     id 27 
     name rwrist
     direction -1 -4.48963e-011 -1.41363e-026   
     length 1.54691   
     axis 1.07133e-014 -90 -90   XYZ
    dof ry
    limits (-180.0 0.0)
  end
  begin
     id 28
     name rhand
     direction -1 -4.49013e-011 -2.82725e-026   
     length 0.500896   
     axis 1.80403e-014 -90 -90   XYZ
    dof rx rz
    limits (-90.0 90.0)
           (-45.0 45.0)
  end
  begin
     id 29
     name rfingers
     direction -1 -4.48902e-011 -5.6545e-026   
     length 0.403835   
     axis 3.60806e-014 -90 -90   XYZ
    dof rx
    limits (0.0 90.0)
  end
  begin
     id 30
     name rthumb
     direction -0.707107 -6.34953e-011 0.707107   
     length 0.579829   
     axis -90 -45 -2.85299e-015   XYZ
    dof rx rz
    limits (-45.0 45.0)
           (-45.0 45.0)
  end
:hierarchy
  begin
    root lhipjoint rhipjoint lowerback
    lhipjoint lfemur
    lfemur ltibia
    ltibia lfoot
    lfoot ltoes
    rhipjoint rfemur
    rfemur rtibia
    rtibia rfoot
    rfoot rtoes
    lowerback upperback
    upperback thorax
    thorax lowerneck lclavicle rclavicle
    lowerneck upperneck
    upperneck head
    lclavicle lhumerus
    lhumerus lradius
    lradius lwrist
    lwrist lhand lthumb
    lhand lfingers
    rclavicle rhumerus
    rhumerus rradius
    rradius rwrist
    rwrist rhand rthumb
    rhand rfingers
  end

#!OML:ASF E:\madness\Project 1\Capture day 1\Session 1\Female1.ASF
:FULLY-SPECIFIED
:DEGREES
241
root -1.04535 15.8797 0.503599 -350.365 -82.5363 360.562
lowerback -4.01939 -2.24721 -2.25553
upperback -4.36147 -3.02788 0.807222
thorax -2.07677 -1.48381 2.02472
lowerneck 5.18108 10.7535 4.97649
upperneck -1.0006 14.4743 -8.26746
head -0.163886 7.3321 -3.6411
rclavicle -2.80638e-015 -3.68994e-015
rhumerus -57.121 -0.855634 -42.8305
rradius 69.7027
rwrist 6.38722
rhand -19.4741 -43.244
rfingers 7.12502
rthumb 6.84748 -73.1132
lclavicle -2.80638e-015 -3.68994e-015
lhumerus -43.49 -3.02453 68.0764
lradius 100.195
lwrist -22.622
lhand -34.2853 -22.5068
lfingers 7.12502
lthumb -7.45492 7.34188
rfemur -21.4477 5.31278 17.6917
rtibia 38.3068
rfoot -18.6268 -13.008
rtoes 3.17825
lfemur -18.7946 -11.5027 -12.119
ltibia 66.6118
lfoot -6.80294 0.773022
ltoes 18.1552
242
root -0.921032 15.8482 0.512698 -349.646 -82.1628 359.862
lowerback -4.66241 -2.39726 -2.29056
upperback -3.93826 -3.198 0.847125
thorax -1.26823 -1.5786 2.03764
lowerneck 6.12769 10.7356 5.43506
upperneck -2.53258 14.4181 -9.11329
head -0.728092 7.34884 -4.14123
rclavicle 1.51854e-014 2.60905e-015
rhumerus -57.2893 -1.91069 -42.7312
rradius 70.8743
rwrist 6.17825
rhand -18.8497 -44.3636
rfingers 7.12502
rthumb 7.45026 -74.2124
lclavicle 1.51854e-014 2.60905e-015
lhumerus -41.6839 -2.93017 67.8965
lradius 100.086
lwrist -22.8087
lhand -34.3341 -22.7937
lfingers 7.12502
lthumb -7.50209 7.05326
rfemur -22.4374 4.9644 17.6221
rtibia 39.2354
rfoot -18.3855 -12.4575
rtoes 4.25414
lfemur -17.3093 -12.114 -11.7017
ltibia 65.382
lfoot -7.33486 0.38775
ltoes 17.2967
243
root -0.801787 15.8263 0.524003 -349.703 -81.8155 359.981
lowerback -4.53999 -2.55812 -2.36061
upperback -4.20796 -3.42339 0.852223
thorax -1.59948 -1.68618 2.08752
lowerneck 5.5076 11.1121 5.02308
upperneck -1.34673 14.9568 -7.98097
head -0.316532 7.57965 -3.5871
rclavicle 5.14819e-014 1.20016e-014
rhumerus -58.0771 -2.06404 -42.6781
rradius 71.9865
rwrist 5.9448
rhand -18.4623 -45.1926
rfingers 7.12502
rthumb 7.82412 -75.0278
lclavicle 5.14819e-014 1.20016e-014
lhumerus -41.0789 -3.13479 67.7683
lradius 100.088
lwrist -22.9904
lhand -34.5463 -23.0153
lfingers 7.12502
lthumb -7.70685 6.82424
rfemur -23.3958 4.66389 17.4251
rtibia 40.1152
rfoot -18.2932 -12.2413
rtoes 4.16389
lfemur -15.949 -12.7332 -11.4323
ltibia 64.0138
lfoot -7.77081 -0.23004
ltoes 18.2922
244
root -0.682501 15.8084 0.540863 -349.946 -81.5073 360.315
lowerback -4.81837 -2.69617 -2.46487
upperback -4.18234 -3.59762 0.871017
thorax -1.40189 -1.77437 2.14291
lowerneck 6.5494 11.0944 5.57946
upperneck -2.35369 14.9476 -8.63755
head -0.728311 7.61052 -4.02492
rclavicle -3.95863e-014 4.52235e-015
rhumerus -58.3767 -2.6573 -42.5583
rradius 72.7514
rwrist 5.79193
rhand -18.9641 -44.8969
rfingers 7.12502
rthumb 7.33978 -74.7496
lclavicle -3.95863e-014 4.52235e-015
lhumerus -40.068 -3.1914 67.7692
lradius 100.057
lwrist -23.134
lhand -35.1199 -23.5341
lfingers 7.12502
lthumb -8.2605 6.2844
rfemur -24.3467 4.46744 17.1441
rtibia 40.9039
rfoot -18.1271 -12.0635
rtoes 4.32529
lfemur -14.6707 -13.3241 -11.2455
ltibia 62.4987
lfoot -7.79538 -0.900146
ltoes 19.5233
245
root -0.549153 15.7813 0.561094 -350.923 -81.2453 361.343
lowerback -4.95841 -2.8182 -2.65508
upperback -4.10675 -3.74784 0.834466
thorax -1.22888 -1.84856 2.19463
lowerneck 5.45808 11.4718 5.05615
upperneck -1.28461 15.4508 -7.57552
head -0.284211 7.8203 -3.4465
rclavicle 2.82728e-014 3.67752e-015
rhumerus -58.5978 -3.37044 -42.4561
rradius 73.4093
rwrist 5.80699
rhand -19.5362 -44.4453
rfingers 7.12502
rthumb 6.78753 -74.3165
lclavicle 2.82728e-014 3.67752e-015
lhumerus -38.9599 -3.27523 67.8173
lradius 100.004
lwrist -23.3735
lhand -35.8487 -23.744
lfingers 7.12502
lthumb -8.96381 6.04555
rfemur -25.2588 4.21191 16.6961
rtibia 41.5831
rfoot -17.9722 -11.7537
rtoes 5.10984
lfemur -13.2721 -13.7564 -11.2571
ltibia 60.8443
lfoot -7.99748 -1.23623
ltoes 16.6796
246
root -0.427987 15.7558 0.56955 -351.944 -81.0453 362.402
lowerback -4.89035 -2.90361 -3.05082
upperback -4.24106 -3.85632 0.79551
thorax -1.37821 -1.89256 2.37846
lowerneck 6.71135 11.3917 5.89213
upperneck -2.19648 15.3958 -8.33448
head -0.670282 7.82923 -3.97575
rclavicle 1.46281e-014 5.76476e-015
rhumerus -59.2253 -3.687 -42.4153
rradius 74.1973
rwrist 5.81996
rhand -19.5925 -44.7042
rfingers 7.12502
rthumb 6.73323 -74.5771
lclavicle 1.46281e-014 5.76476e-015
lhumerus -38.1683 -3.627 67.8489
lradius 99.9722
lwrist -23.6506
lhand -36.3698 -23.7777
lfingers 7.12502
lthumb -9.46664 5.98969
rfemur -26.1095 4.24332 16.2915
rtibia 42.1924
rfoot -17.8288 -11.7247
rtoes 4.88207
lfemur -11.8863 -13.9945 -11.1878
ltibia 59.0943
lfoot -8.51962 -1.77734
ltoes 14.9069
247
root -0.301252 15.7382 0.587314 -352.544 -80.9398 363.011
lowerback -5.36643 -2.96734 -3.37981
upperback -3.86825 -3.89791 0.801182
thorax -0.70515 -1.91926 2.52522
lowerneck 5.59544 11.6419 5.45564
upperneck -1.68916 15.6937 -7.76434
head -0.372703 7.94893 -3.59782
rclavicle 3.12997e-014 1.54058e-015
rhumerus -59.201 -4.51149 -42.4351
rradius 74.9044
rwrist 5.8298
rhand -19.6805 -44.4871
rfingers 7.12502
rthumb 6.64827 -74.3628
lclavicle 3.12997e-014 1.54058e-015
lhumerus -36.5513 -3.66008 67.8876
lradius 99.7402
lwrist -23.8896
lhand -36.4039 -23.984
lfingers 7.12502
lthumb -9.49951 5.78183
rfemur -26.9246 4.22937 15.9338
rtibia 42.7774
rfoot -17.6811 -11.7026
rtoes 3.39068
lfemur -10.5457 -14.2148 -11.1229
ltibia 57.3462
lfoot -8.84136 -2.5816
ltoes 15.9665
248
root -0.16767 15.7108 0.613632 -352.945 -80.9499 363.335
lowerback -5.44504 -3.01198 -3.54374
upperback -3.71742 -3.94114 0.779723
thorax -0.493995 -1.94239 2.58208
lowerneck 7.2965 11.41 6.51149
upperneck -3.42837 15.4275 -9.05396
head -1.06476 7.87267 -4.43039
rclavicle -1.25859e-014 -6.4605e-015
rhumerus -59.3032 -5.0219 -42.5353
rradius 75.4579
rwrist 5.89027
rhand -19.7523 -43.8764
rfingers 7.12502
rthumb 6.57891 -73.7542
lclavicle -1.25859e-014 -6.4605e-015
lhumerus -35.4767 -3.73287 67.9305
lradius 99.5192
lwrist -24.0994
lhand -36.4361 -24.1902
lfingers 7.12502
lthumb -9.53059 5.57425
rfemur -27.657 4.29325 15.5774
rtibia 43.2833
rfoot -17.4909 -11.6164
rtoes 2.11163
lfemur -9.11503 -14.3677 -11.1366
ltibia 55.6091
lfoot -9.07863 -3.1044
ltoes 16.4473
249
root -0.0286668 15.6764 0.642486 -353.037 -80.7971 363.339
lowerback -5.37031 -3.09971 -3.63955
upperback -3.65434 -4.05352 0.750919
thorax -0.458248 -1.9979 2.60109
lowerneck 5.40685 11.8503 5.79819
upperneck -1.40595 16.0104 -7.38259
head -0.231178 8.09654 -3.4949
rclavicle 5.66397e-014 1.0138e-014
rhumerus -59.5126 -5.4656 -42.6671
rradius 75.9175
rwrist 6.03616
rhand -19.7076 -43.4686
rfingers 7.12502
rthumb 6.62206 -73.3451
lclavicle 5.66397e-014 1.0138e-014
lhumerus -34.5611 -3.96561 67.9898
lradius 99.2684
lwrist -24.337
lhand -36.7129 -24.3976
lfingers 7.12502
lthumb -9.79762 5.35451
rfemur -28.3028 4.37961 15.2583
rtibia 43.6756
rfoot -17.2356 -11.57
rtoes 1.07518
lfemur -7.81785 -14.61 -11.0939
ltibia 53.8822
lfoot -9.16341 -3.48382
ltoes 17.1489
250
root 0.108642 15.6584 0.669324 -352.855 -80.5228 363.046
lowerback -5.21368 -3.20895 -3.7338
upperback -3.62058 -4.19892 0.751453
thorax -0.493558 -2.06813 2.65343
lowerneck 6.49279 11.656 6.51016
upperneck -2.39736 15.7945 -8.21498
head -0.625833 8.02074 -4.02313
rclavicle -4.5399e-014 -1.71949e-014
rhumerus -59.8977 -5.80035 -42.8172
rradius 76.5903
rwrist 6.02822
rhand -19.6847 -43.238
rfingers 7.12502
rthumb 6.64421 -73.1138
lclavicle -4.5399e-014 -1.71949e-014
lhumerus -33.698 -4.23005 68.1132
lradius 98.9458
lwrist -24.7752
lhand -36.9109 -24.6668
lfingers 7.12502
lthumb -9.98873 5.07622
rfemur -28.7967 4.55266 14.99
rtibia 43.9171
rfoot -17.0715 -11.6851
rtoes 0.61992
lfemur -6.61232 -15.0643 -11.0163
ltibia 52.0902
lfoot -8.97268 -3.86941
ltoes 17.5452
251
root 0.241028 15.6462 0.697869 -352.11 -80.3574 362.091
lowerback -4.95917 -3.25553 -3.72423
upperback -3.59877 -4.26906 0.800498
thorax -0.604105 -2.10011 2.70906
lowerneck 6.86615 11.6716 6.93677
upperneck -2.48521 15.8607 -8.4278
head -0.660769 8.06222 -4.19826
rclavicle 4.15157e-014 5.06901e-015
rhumerus -60.399 -6.04003 -42.9532
rradius 77.3597
rwrist 5.89388
rhand -19.8049 -43.2567
rfingers 7.12502
rthumb 6.52813 -73.1361
lclavicle 4.15157e-014 5.06901e-015
lhumerus -32.8858 -4.47491 68.301
lradius 98.5166
lwrist -25.3391
lhand -37.0893 -24.9799
lfingers 7.12502
lthumb -10.1608 4.75472
rfemur -29.1313 4.89731 14.8193
rtibia 44.0061
rfoot -16.957 -11.8288
rtoes 1.31917
lfemur -5.24629 -15.6303 -10.9593
ltibia 50.239
lfoot -8.89714 -3.9283
ltoes 16.8461
252
root 0.383322 15.6313 0.733599 -351.076 -80.1557 360.924
lowerback -4.81189 -3.26008 -3.61089
upperback -3.5122 -4.28008 0.866884
thorax -0.59828 -2.10663 2.71927
lowerneck 7.07641 11.6233 7.0226
upperneck -2.67325 15.8083 -8.39369
head -0.75988 8.03843 -4.22989
rclavicle 2.92881e-014 1.02374e-014
rhumerus -60.746 -6.52177 -42.9881
rradius 77.9773
rwrist 5.94068
rhand -20.0807 -43.1391
rfingers 7.12502
rthumb 6.26191 -73.0265
lclavicle 2.92881e-014 1.02374e-014
lhumerus -31.8588 -4.89565 68.5496
lradius 97.9784
lwrist -25.7031
lhand -37.3323 -25.2903
lfingers 7.12502
lthumb -10.3952 4.43277
rfemur -29.509 5.1334 14.6618
rtibia 43.9299
rfoot -16.6433 -11.9719
rtoes 1.96705
lfemur -4.03669 -16.1301 -10.8636
ltibia 48.3213
lfoot -8.67327 -3.87479
ltoes 15.2595
253
root 0.54063 15.6166 0.769987 -350.313 -79.7953 360.153
lowerback -4.69335 -3.34005 -3.56026
upperback -3.41272 -4.38774 0.951754
thorax -0.550454 -2.16136 2.77589
lowerneck 7.00572 11.6126 6.94341
upperneck -2.67399 15.7895 -8.2119
head -0.771659 8.02436 -4.15106
rclavicle -2.15138e-014 1.44119e-014
rhumerus -60.795 -7.05967 -43.0201
rradius 78.4596
rwrist 6.05741
rhand -20.1572 -43.0237
rfingers 7.12502
rthumb 6.18804 -72.9133
lclavicle -2.15138e-014 1.44119e-014
lhumerus -30.888 -5.27464 68.8598
lradius 97.464
lwrist -25.8614
lhand -37.5098 -26.2722
lfingers 7.12502
lthumb -10.5665 3.4422
rfemur -30.0052 5.19273 14.4388
rtibia 43.7485
rfoot -16.0788 -12.2242
rtoes 2.02631
lfemur -3.17145 -16.6448 -10.6997
ltibia 46.3495
lfoot -7.79465 -3.95319
ltoes 14.6732
254
root 0.692357 15.61 0.80692 -349.567 -79.5356 359.333
lowerback -4.53802 -3.46458 -3.57079
upperback -3.28854 -4.5531 1.08604
thorax -0.484808 -2.2442 2.91559
lowerneck 6.70188 11.7139 6.89696
upperneck -2.39515 15.9213 -8.05346
head -0.633705 8.0824 -4.04849
rclavicle -9.13322e-014 -7.45443e-015
rhumerus -60.645 -7.3195 -43.1982
rradius 79.0068
rwrist 6.05907
rhand -20.1503 -43.0886
rfingers 7.12502
rthumb 6.19469 -72.978
lclavicle -9.13322e-014 -7.45443e-015
lhumerus -30.0255 -5.46967 69.1692
lradius 96.9209
lwrist -25.9919
lhand -37.9248 -27.6822
lfingers 7.12502
lthumb -10.9667 2.01136
rfemur -30.3979 5.3605 14.2303
rtibia 43.4656
rfoot -15.4288 -12.5122
rtoes 1.83615
lfemur -2.22938 -17.1604 -10.5969
ltibia 44.2966
lfoot -6.80242 -3.78025
ltoes 17.0341
